#!OML:ASF I:\Actors\actors\Patient Classification 2\Patient 1\Session 1\actor1.ASF
:FULLY-SPECIFIED
:DEGREES
582
root -0.532423 18.6581 5.99231 1.81796 -2.77153 -2.57456
lowerback 0.569106 1.54336 0.0683799
upperback -3.96084 2.08219 0.463137
thorax -4.41312 1.04348 0.347371
lowerneck -8.34983 -2.4163 -2.68222
upperneck 40.0713 -3.4337 1.0111
head 15.5881 -1.73771 0.395319
rclavicle 4.18193e-014 4.57205e-015
rhumerus -41.5858 66.1986 -78.4197
rradius 139.316
rwrist -15.8693
rhand -11.2236 -38.5277
rfingers 7.12502
rthumb 14.8051 -67.9788
lclavicle 4.18193e-014 4.57205e-015
lhumerus -41.8589 -58.698 82.7505
lradius 136.112
lwrist 74.2537
lhand -12.7684 -1.49033
lfingers 7.12502
lthumb 13.3164 28.0642
rfemur 0 0 0
rtibia 0
rfoot 0 0
rtoes 0
lfemur -2.74093 -7.40131 -12.7398
ltibia 22.1287
lfoot -27.5978 19.2934
ltoes -53.8993
583
root -0.532448 18.6577 5.99297 1.81277 -2.74537 -2.54584
lowerback 0.581826 1.53416 0.12165
upperback -3.95942 2.06918 0.402206
thorax -4.41451 1.0338 0.255097
lowerneck -8.29007 -2.4021 -2.6776
upperneck 40.0831 -3.45703 1.11846
head 15.5831 -1.73332 0.437896
rclavicle 4.03533e-014 6.95746e-015
rhumerus -41.1937 66.2205 -78.2531
rradius 139.362
rwrist -15.4141
rhand -11.1071 -38.2486
rfingers 7.12502
rthumb 14.9174 -67.6915
lclavicle 4.03533e-014 6.95746e-015
lhumerus -41.7647 -58.8365 82.9238
lradius 136.12
lwrist 74.0771
lhand -12.7541 -1.3677
lfingers 7.12502
lthumb 13.3303 28.1859
rfemur 0 0 0
rtibia 0
rfoot 0 0
rtoes 0
lfemur -2.74039 -7.42068 -12.7737
ltibia 22.126
lfoot -27.5962 19.302
ltoes -53.9078
584
root -0.532432 18.6581 5.99401 1.82018 -2.71507 -2.52667
lowerback 0.553124 1.52712 0.162362
upperback -3.94656 2.05939 0.366875
thorax -4.38194 1.02681 0.19748
lowerneck -8.24025 -2.38668 -2.74081
upperneck 40.0996 -3.47401 1.25924
head 15.5856 -1.73174 0.507878
rclavicle 2.2736e-014 4.37326e-015
rhumerus -40.7814 66.2553 -78.0037
rradius 139.41
rwrist -15.0828
rhand -11.1013 -37.9691
rfingers 7.12502
rthumb 14.9229 -67.4115
lclavicle 2.2736e-014 4.37326e-015
lhumerus -41.61 -58.9312 83.042
lradius 136.118
lwrist 74.0296
lhand -12.8618 -1.14282
lfingers 7.12502
lthumb 13.2264 28.4176
rfemur 0 0 0
rtibia 0
rfoot 0 0
rtoes 0
lfemur -2.75599 -7.32021 -12.7788
ltibia 22.1217
lfoot -27.5125 19.2417
ltoes -54.0247
585
root -0.532258 18.6586 5.99535 1.8301 -2.68913 -2.52458
lowerback 0.510957 1.52699 0.138564
upperback -3.9294 2.05906 0.389223
thorax -4.3418 1.02805 0.235333
lowerneck -8.20836 -2.38759 -2.72864
upperneck 40.114 -3.44335 1.16974
head 15.582 -1.72864 0.472423
rclavicle 1.98785e-015 2.5842e-015
rhumerus -40.4136 66.2675 -77.6893
rradius 139.454
rwrist -14.5227
rhand -10.9528 -37.7461
rfingers 7.12502
rthumb 15.066 -67.1779
lclavicle 1.98785e-015 2.5842e-015
lhumerus -41.5117 -59.0152 83.2749
lradius 136.07
lwrist 73.8263
lhand -13.0315 -1.08265
lfingers 7.12502
lthumb 13.0628 28.4883
rfemur 0 0 0
rtibia 0
rfoot 0 0
rtoes 0
lfemur -2.76003 -7.23464 -12.766
ltibia 22.1035
lfoot -27.4335 19.1696
ltoes -54.1191
586
root -0.532682 18.6591 5.9963 1.83258 -2.69619 -2.52709
lowerback 0.494879 1.53765 0.0781339
upperback -3.91592 2.07312 0.433749
thorax -4.32258 1.03815 0.315023
lowerneck -8.14733 -2.41244 -2.73263
upperneck 40.1226 -3.43355 1.04734
head 15.5687 -1.74151 0.422944
rclavicle 2.47238e-014 3.37934e-015
rhumerus -40.1244 66.2549 -77.418
rradius 139.486
rwrist -13.6036
rhand -10.7132 -37.4261
rfingers 7.12502
rthumb 15.2967 -66.8404
lclavicle 2.47238e-014 3.37934e-015
lhumerus -41.5853 -59.1283 83.6948
lradius 136.037
lwrist 73.3621
lhand -13.2237 -1.11333
lfingers 7.12502
lthumb 12.8776 28.4694
rfemur 0 0 0
rtibia 0
rfoot 0 0
rtoes 0
lfemur -2.7536 -7.30388 -12.7702
ltibia 22.1154
lfoot -27.5235 19.1623
ltoes -54.0481
587
root -0.55087 18.6559 6.00662 1.70481 -2.37365 -2.55117
lowerback 0.438946 1.43058 -0.179131
upperback -3.82358 1.9256 0.524486
thorax -4.20554 0.975545 0.56147
lowerneck -8.1013 -2.4439 -2.7896
upperneck 40.1363 -3.45941 1.02265
head 15.5666 -1.76461 0.419255
rclavicle -3.60297e-015 -1.2921e-014
rhumerus -39.8045 66.2198 -77.155
rradius 139.514
rwrist -12.6674
rhand -10.5714 -37.1784
rfingers 7.12502
rthumb 15.4334 -66.5822
lclavicle -3.60297e-015 -1.2921e-014
lhumerus -41.7362 -59.2645 84.1385
lradius 136.063
lwrist 72.6548
lhand -13.3887 -1.12064
lfingers 7.12502
lthumb 12.7184 28.472
rfemur 0 0 0
rtibia 0
rfoot 0 0
rtoes 0
lfemur -2.64901 -7.16928 -12.6029
ltibia 22.1243
lfoot -27.2966 18.7724
ltoes -54.1902
588
root -0.535171 18.6589 5.99696 1.8451 -2.66607 -2.57603
lowerback 0.482112 1.53901 0.0950764
upperback -3.86415 2.07688 0.483528
thorax -4.26272 1.04046 0.357907
lowerneck -8.13344 -2.46483 -2.84419
upperneck 40.1816 -3.47616 1.01845
head 15.5998 -1.78009 0.424096
rclavicle 2.51711e-014 1.03368e-014
rhumerus -39.4625 66.1698 -76.8863
rradius 139.558
rwrist -12.0515
rhand -10.2726 -37.2623
rfingers 7.12502
rthumb 15.7212 -66.6437
lclavicle 2.51711e-014 1.03368e-014
lhumerus -41.8884 -59.3667 84.5288
lradius 136.099
lwrist 71.7472
lhand -13.4232 -1.2214
lfingers 7.12502
lthumb 12.6852 28.3733
rfemur 0 0 0
rtibia 0
rfoot 0 0
rtoes 0
lfemur -2.78884 -7.33891 -12.707
ltibia 22.1343
lfoot -27.5137 19.1987
ltoes -54.1238
589
root -0.536634 18.6588 5.99901 1.86413 -2.67129 -2.57234
lowerback 0.41322 1.54892 0.0518827
upperback -3.80889 2.0894 0.515529
thorax -4.169 1.04892 0.417425
lowerneck -8.21515 -2.4825 -2.99251
upperneck 40.2634 -3.51383 1.14153
head 15.6707 -1.80109 0.496618
rclavicle -3.21783e-014 -1.86858e-014
rhumerus -39.0714 66.1188 -76.5461
rradius 139.612
rwrist -11.8709
rhand -9.8209 -37.4384
rfingers 7.12502
rthumb 16.1561 -66.7851
lclavicle -3.21783e-014 -1.86858e-014
lhumerus -42.0338 -59.4288 84.9216
lradius 136.122
lwrist 70.774
lhand -13.2935 -1.42829
lfingers 7.12502
lthumb 12.8103 28.1587
rfemur 0 0 0
rtibia 0
rfoot 0 0
rtoes 0
lfemur -2.80856 -7.28149 -12.6996
ltibia 22.1455
lfoot -27.4842 19.1778
ltoes -54.1864
590
root -0.5385 18.659 6.00118 1.85472 -2.68728 -2.5705
lowerback 0.33666 1.55174 -0.0420622
upperback -3.73406 2.0923 0.584043
thorax -4.05385 1.05491 0.543809
lowerneck -8.29922 -2.5038 -3.20345
upperneck 40.3693 -3.56552 1.32249
head 15.7591 -1.82992 0.603415
rclavicle -6.03808e-015 -3.97569e-015
rhumerus -38.6147 66.1187 -76.1449
rradius 139.676
rwrist -12.3707
rhand -9.36766 -37.6285
rfingers 7.12502
rthumb 16.5925 -66.9392
lclavicle -6.03808e-015 -3.97569e-015
lhumerus -42.2183 -59.4291 85.337
lradius 136.129
lwrist 69.765
lhand -12.9941 -1.6642
lfingers 7.12502
lthumb 13.0989 27.9044
rfemur 0 0 0
rtibia 0
rfoot 0 0
rtoes 0
lfemur -2.77979 -7.29594 -12.6976
ltibia 22.1497
lfoot -27.5453 19.1371
ltoes -54.0507
591
root -0.539417 18.6593 6.00262 1.85283 -2.69815 -2.61901
lowerback 0.311755 1.54415 -0.0583368
upperback -3.69475 2.08404 0.660723
thorax -4.00233 1.05273 0.633498
lowerneck -8.33093 -2.51794 -3.2733
upperneck 40.4493 -3.56994 1.31865
head 15.8111 -1.84256 0.613141
rclavicle -7.55382e-015 1.98785e-016
rhumerus -38.3675 66.1616 -75.9621
rradius 139.805
rwrist -13.5549
rhand -8.71423 -38.2934
rfingers 7.12502
rthumb 17.2215 -67.5503
lclavicle -7.55382e-015 1.98785e-016
lhumerus -42.4901 -59.3653 85.7819
lradius 136.132
lwrist 68.7223
lhand -12.616 -1.8127
lfingers 7.12502
lthumb 13.4633 27.7322
rfemur 0 0 0
rtibia 0
rfoot 0 0
rtoes 0
lfemur -2.74978 -7.25903 -12.6334
ltibia 22.116
lfoot -27.5379 19.0949
ltoes -53.9347
592
root -0.563844 18.6537 6.01879 1.62538 -2.23385 -2.63821
lowerback 0.28493 1.37135 -0.409681
upperback -3.55638 1.84753 0.772656
thorax -3.85556 0.947943 0.956894
lowerneck -8.32668 -2.52167 -3.20513
upperneck 40.4628 -3.5655 1.24596
head 15.8131 -1.84002 0.57013
rclavicle -4.84538e-015 8.74653e-015
rhumerus -38.4624 66.1722 -76.1175
rradius 139.946
rwrist -14.9662
rhand -7.88146 -39.3612
rfingers 7.12502
rthumb 18.0229 -68.5461
lclavicle -4.84538e-015 8.74653e-015
lhumerus -42.7873 -59.306 86.1575
lradius 136.182
lwrist 67.711
lhand -12.2405 -1.90405
lfingers 7.12502
lthumb 13.8253 27.6165
rfemur 0 0 0
rtibia 0
rfoot 0 0
rtoes 0
lfemur -2.52438 -6.95047 -12.407
ltibia 22.0745
lfoot -27.1172 18.4836
ltoes -54.2032
593
root -0.57285 18.652 6.02547 1.56395 -2.10148 -2.60125
lowerback 0.260814 1.32292 -0.565212
upperback -3.48939 1.77909 0.779804
thorax -3.77609 0.918452 1.05531
lowerneck -8.33105 -2.53874 -3.1047
upperneck 40.4338 -3.60632 1.21812
head 15.7964 -1.84576 0.533687
rclavicle -1.38652e-014 -7.35503e-015
rhumerus -38.7922 66.1393 -76.4713
rradius 140.009
rwrist -16.4367
rhand -7.08352 -40.2682
rfingers 7.12502
rthumb 18.7905 -69.3806
lclavicle -1.38652e-014 -7.35503e-015
lhumerus -43.0269 -59.2727 86.3958
lradius 136.264
lwrist 66.803
lhand -11.9498 -2.0609
lfingers 7.12502
lthumb 14.1054 27.4403
rfemur 0 0 0
rtibia 0
rfoot 0 0
rtoes 0
lfemur -2.44833 -6.9232 -12.3923
ltibia 22.0411
lfoot -27.0522 18.3409
ltoes -54.2534
594
root -0.574098 18.6527 6.0274 1.59291 -2.14208 -2.60047
lowerback 0.253108 1.35341 -0.560514
upperback -3.47946 1.8192 0.758471
thorax -3.76151 0.937844 1.02959
lowerneck -8.27803 -2.57705 -2.97852
upperneck 40.3553 -3.66202 1.13031
head 15.738 -1.86224 0.465439
rclavicle -3.516e-014 -4.37326e-015
rhumerus -39.3104 66.1013 -76.958
rradius 140.045
rwrist -18.3217
rhand -6.31826 -41.1759
rfingers 7.12502
rthumb 19.5264 -70.2153
lclavicle -3.516e-014 -4.37326e-015
lhumerus -43.295 -59.1844 86.6478
lradius 136.346
lwrist 66.1786
lhand -11.7854 -2.29561
lfingers 7.12502
lthumb 14.2638 27.1945
rfemur 0 0 0
rtibia 0
rfoot 0 0
rtoes 0
lfemur -2.44972 -6.94442 -12.3989
ltibia 22.0077
lfoot -27.0888 18.3958
ltoes -54.1799
